<svg xmlns="http://www.w3.org/2000/svg" viewBox="0 0 67.733 67.733" height="256" width="256"><path fill="none" d="M0 0h67.733v67.733H0z"/><g transform="matrix(.3539 0 0 .3539 -18.609 -28.397)"><rect width="84.799" height="3.479" x="-156.772" y="261.016" rx="2.666" ry="1.516" transform="scale(-1 1)" color="#000" overflow="visible" fill="#b2bfc5"/><path style="font-variation-settings:normal" d="M131.156 182.194s1.918 11.658 4.577 13.499c2.658 1.84 8.096 2.16 8.096 2.16l-3.806 13.784s-10.174-1.569-13.081-6.474c-2.908-4.905-2.372-19.335-2.372-19.335z" fill="#eaeeef" paint-order="markers stroke fill"/><path style="font-variation-settings:normal" d="M131.79 187.805s-3.61 9.66-4.584 14.444c-.974 4.782 2.382 5.659 2.382 5.659l7.704 3.438 2.471-13.665-5.306-2z" fill="#cbd5d7"/><path d="M131.156 182.194s1.918 11.658 4.577 13.499c2.658 1.84 8.096 2.16 8.096 2.16l-3.806 13.784s-10.174-1.569-13.081-6.474c-2.908-4.905-2.372-19.335-2.372-19.335z" style="font-variation-settings:normal" fill="#eaeeef" paint-order="markers stroke fill"/><path style="font-variation-settings:normal" d="M156.3 178.706c-1.957.18-3.344 1.94-3.344 1.94s.806 2.485.485 4.91c-.322 2.426-1.982 4.372-3.212 6.056-1.2 1.644-1.734 4.222-1.76 4.345-3.316.414-6.72.682-8.651.374 0 0-5.864 8.138-4.54 15.468 9.575 1.894 24.206 2.274 24.923 2.292.119.095.23.186.357.286 2.703-.225 3.383-3.759 2.364-4.097-.532-.177-1.501-1.133-2.312-2.01l.682-14.342s-4.028.64-4.504.727c-.17-1.325-.368-2.96-.39-3.811-.037-1.357 1.29-2.987 1.999-5.183.709-2.197 0-3.56-2.097-6.955z" fill="#688086" stroke="#495b5f" stroke-width="1.778"/><path style="font-variation-settings:normal" d="M134.664 194.36s-3.489 2.12-3.512 4.47c1.889-2.113 4.403-2.949 4.403-2.949z" fill="#6b797d" paint-order="markers stroke fill"/><path style="font-variation-settings:normal" d="M134.705 182.867l-8.384 37.057 29.158 3.622 8.288-41.966z" fill="#deaa87" stroke="#a05a2c" stroke-width="1.7777977600000001"/><path style="font-variation-settings:normal" d="M137.27 185.593l22.695-.436-7.068 34.86-22.59-2.235z" fill="#d08553" paint-order="markers stroke fill"/><path style="font-variation-settings:normal" d="M136.84 184.866l22.694-.436-7.068 34.86-22.59-2.235z" fill="#fff" paint-order="markers stroke fill"/><path style="font-variation-settings:normal" d="M142.404 181.032l-1.332 5.166 11.925-.535 1.132-5.179z" fill="none" stroke="#a05a2c" stroke-width=".7937396800000001" paint-order="markers stroke fill"/><path style="font-variation-settings:normal" d="M138.402 189.914c.335-.425.622-.792 1.178-.809.843-.025 1.14 1.65 2.047 1.678 1.024.033 1.696-.982 2.696-.93 1.12.057 1.733 1.09 2.734 1.27 1.018.183 1.94-1.07 2.923-1.189.916-.111 1.214.811 2.024 1.006.454.108 1.921-.36 2.372-.408M137.47 195.18c.504-.088 1.14-.691 1.707-.604.972.15 1.275 1.17 2.22 1.311.868.13 1.688-.839 2.674-.74.846.085 1.387 1.028 2.25 1.053.718.02 1.314-.749 2.085-.788 1.155-.059 1.7.752 2.704 1.019.48.128 1.743-.336 2.235-.285M136.73 200.752c.772-.335 1.557-.383 2.371-.238 1 .178 1.549 1.311 2.38 1.433.895.132 1.621-.428 2.507-.441.797-.012 1.95-.284 2.696.02.455.185.707.708 1.224.748.426.032.742-.365 1.125-.49.96-.31 2.411.005 3.232.218M136.088 205.847c.703-.315 1.46-.529 2.236-.34.995.243 1.906 1.521 2.9 1.57 1.255.061 2.267-.803 3.632-.496.653.147 1.1 1.016 1.798.958 1.407-.118 3.65-.898 4.992-.259" fill="none" stroke="#006680" stroke-width=".5289732" stroke-linecap="round" stroke-linejoin="round"/><path style="font-variation-settings:normal" d="M166.256 191.525s-1.809-2.448-1.572-4.687c-2.268-.753-4.138 1.511-4.306 2.882-.169 1.37 1.471 5.746 1.471 5.746s3.76.006 4.407-3.94z" fill="#688086" stroke="#495b5f" stroke-width="1.777" stroke-linejoin="round"/><path style="font-variation-settings:normal" d="M164.893 195.118s-2.79-1.187-3.711-3.239c-2.334.509-2.808 3.416-2.265 4.684.544 1.268 4.156 4.203 4.156 4.203s3.245-1.914 1.82-5.648zM162.436 200.785s-2.79-1.187-3.711-3.24c-2.333.51-2.808 3.416-2.264 4.684.543 1.269 4.156 4.204 4.156 4.204s3.244-1.914 1.82-5.648z" fill="#688086" stroke="#495b5f" stroke-width="1.777" stroke-linejoin="round"/><path style="font-variation-settings:normal" d="M163.56 188.583s-1.042.778-1.325 2.162c-.844-1.24 1.148-2.743 1.148-2.743zM161.113 194.016s-.752 1.105-.763 2.085c-.54-1.566.315-2.45.315-2.45zM158.716 199.723s-.647 1.2-.876 2.31c-.807-.999.363-2.896.363-2.896z" fill="#81989e"/><path d="M124.828 178.665l8.797 1.532c-.674 4.36-2.95 6.523-6.264 7.803z" fill="#688086" stroke="#495b5f" stroke-width="1.777" stroke-linejoin="round"/><path d="M127.233 181.285l5.185.186.176-.56-6.038-1.06z" fill="#99acb0"/><path d="M96.111 198.045c-2.6-1.56.808 3.996.496 11.701-.252 6.245-4.068 18.172-4.068 18.172l-10.977 34.715H98.61l14.596-38.956 1.057 38.956h22.381c-.314-3.14-2.453-5.96-5.275-7.984l-3.536-57.098z" fill="#eaeeef" stroke="#6b797d" stroke-width="1.777" stroke-linejoin="round"/><path d="M127.376 204.536l-3.917 3.528.47 2.145c-1.78 3.017-15.68 4.88-22.554.527l-2.585-5.57s.783 3.736.825 5.36c.07 2.657-.52 5.733-1.779 9.584-2.992 9.15-6.648 21.57-6.648 21.57l-1.348-2.451 6.283-20.774 1.257-12.174-.55-4.713 30.428.364z" fill="#cbd5d7"/><path d="M88.955 239.448l-4.712 14.34-2.726 3.722-1.419 5.104h21.88l-1.255-5.777 2.701-7.17c-6.113-1.713-11.332-5.234-14.469-10.219z" fill="#738d93" stroke="#495b5f" stroke-width="1.777" stroke-linejoin="round"/><path d="M117.564 222.067l-4.159.72s.652.253.652.72c0 8.11.68 24.321.68 24.321l2.435-.235-2.435-22.836z" fill="#cbd5d7"/><path d="M130.544 242.346c-5.892 4.03-11.71 6.407-17.184 5.942l.58 7.506-.988 2.158-.122 4.662h23.814c-.315-3.14-2.454-5.919-5.276-7.942z" fill="#738d93" stroke="#495b5f" stroke-width="1.777" stroke-linejoin="round"/><path d="M113.006 222.825l5.505-1.304-5.278 3.34z" fill="#748387"/><path d="M125.66 256.306l5.062-.017c2.007 1.207 2.963 3.14 3.77 5.426h1.09c-.696-2.668-2.325-4.537-4.603-6.185zM128.874 244.49l.228 10.318 1.381-.194-.726-10.67z" fill="#9aabb0"/><path d="M84.98 254.288l-1.624 3.735-.194 2.916 6.692.777-8.58.018 1.055-3.915z" fill="#5d757b"/><path d="M94.451 255.972l3.845 1.954 1.576 3.79 1 .038-.923-4.337zM101.189 249.88l-2.11 6.14 1 .128 2.174-5.899zM126.98 245.597l2.138-.64-.042-.59z" fill="#9aabb0"/><path d="M101.086 255.78l-9.397-.553 9.125 2.421zM131.396 253.159l-10.678 3.803 10.686-1.37z" fill="#495b5f"/><path d="M96.908 177.338l10.996 10.681 13.43-9.503-6.792-2.155z" fill="#eaeeef"/><path d="M115.886 177.321c-1.413 1.531-6.771 1.666-10.505 1.41.278 1.24 2.65 2.845 5.133 3.324-3.983.482-7.412-1.806-11.117-2.713l3.617-4.201z" fill="#d1dadc"/><path d="M87.83 177.063c4.035-.397 10.22-.327 13.548.275 0 0 2.559 3.71 4.79 4.673 2.455 1.059 5.82 1.214 8.012-.314 1.592-1.11 2.228-4.554 2.228-4.554l8.341 1.492c1.77 2.547 3.16 6.288 3.796 10.257.115.726-.697 3.055-.578 3.79.443 2.738 1.139 4.866.91 7.736l-3.027 2.9-1 5.206c-6.024 4.956-15.425 3.476-21.842.61l-2.337-5.564-6.126-1.6-1.257-4.211-4.8-3.87 3.776-7.642z" fill="#738d93" stroke="#495b5f" stroke-width="1.777" stroke-linejoin="round"/><path d="M100.862 178.142l1.288 1.63-7.657-.286s1.676 3.026 1.458 6.719c-.325 5.538-4.041 9.347-4.041 9.347l-2.325-1.908s1.664-3.466 2.259-4.393c1.8-2.805 2.15-5.12 1.773-7.693-.33-2.25-1.388-3.84-1.388-3.84 2.78-.038 5.68-.103 8.633.424z" fill="#5d757b"/><path d="M101.988 200.193c.11-.025-.723-7.12-2.663-12.073-.24-.612.057-2.34 2.706-2.445 6.098-.24 11.761-.939 17.855-.939 2.062 0 2.04.43 2.713 1.562 2.124 3.574 2.803 12.462 2.711 12.462z" fill="none" stroke="#495b5f" stroke-width=".602" stroke-linecap="round" stroke-linejoin="round"/><path d="M104.734 201.359l18.805-1.072" fill="none" stroke="#495b5f" stroke-width=".602" stroke-linecap="round"/><path d="M101.581 185.988s-1.806 1.006-1.227 2.368c1.82 4.273 2.412 10.093 2.475 10.517.081.555-.294.849-.54.974-.01-.125-1.032-8.035-2.673-11.75-.118-.27-.258-1.242 1.086-1.876.269-.127.88-.233.88-.233z" fill="#99acb0"/><g fill="#fff"><path d="M104.64 194.303l-.538-3.406 1.692-.107c.687-.043 1.086.286 1.17.815.06.387-.082.608-.456.781.398.073.672.303.74.735.107.672-.216 1.032-.97 1.079zm1.525-.65c.296-.018.422-.17.376-.456-.056-.354-.305-.517-.748-.49l-.868.055-.081-.512c.434-.027.754-.043 1.035-.06.313-.02.44-.188.391-.5a.4.4 0 00-.432-.349l-.98.062.365 2.31zM107.723 190.67l.538 3.405-.669.042-.538-3.406zM108.288 193.287c-.079-.497.266-.77 1.034-.818.18-.011.363-.007.548.014l-.03-.189c-.035-.223-.224-.325-.566-.303-.29.018-.605.078-.946.18l-.079-.5c.341-.102.657-.162.946-.18.788-.05 1.226.2 1.313.75l.264 1.676-.389.025-.272-.21c-.207.165-.45.255-.728.273-.648.04-1.013-.199-1.095-.718zm1.65-.376a2.979 2.979 0 00-.548-.013c-.322.02-.467.133-.434.34.035.222.187.325.457.308a.99.99 0 00.588-.234zM111.028 193.901l-.395-2.5.553-.036.106.364c.216-.26.486-.4.811-.421.628-.04.99.249 1.088.865l.25 1.577-.67.042-.25-1.577c-.043-.276-.21-.405-.501-.387a.929.929 0 00-.598.285l.276 1.746zM119.771 193.351l-.395-2.5.553-.035.106.363c.216-.26.486-.4.811-.421.628-.04.99.249 1.088.865l.25 1.577-.67.042-.25-1.577c-.043-.276-.21-.405-.501-.387a.929.929 0 00-.598.285l.276 1.746z" style="line-height:0%;-inkscape-font-specification:'Sansation Bold';text-align:center" font-weight="700" font-size="16.25" font-family="Sansation" letter-spacing="0" word-spacing="0" text-anchor="middle"/><path d="M117.184 190.073c-1.004.064-1.697.882-1.547 1.83.15.947 1.084 1.663 2.089 1.6 1.005-.063 1.697-.882 1.547-1.83-.15-.947-1.084-1.663-2.089-1.6zm.092.578c.666-.042 1.285.433 1.385 1.061.099.629-.36 1.171-1.026 1.213-.667.042-1.286-.433-1.385-1.061-.1-.628.36-1.17 1.026-1.213z" color="#000" overflow="visible"/><g font-weight="700" font-size="16.25" font-family="Sansation" letter-spacing="0" word-spacing="0" text-anchor="middle"><path d="M113.85 190.284l.539 3.406-.67.042-.538-3.406z" style="line-height:0%;-inkscape-font-specification:'Sansation Bold';text-align:center"/><path style="line-height:0%;-inkscape-font-specification:'Sansation Bold';text-align:center" d="M115.587 191.068l-.732 1.32 1.363 1.187-.738.046-1.363-1.187.733-1.32z"/></g><path style="line-height:0%;-inkscape-font-specification:'Sansation Bold';text-align:center" d="M104.64 194.303l-.538-3.406 1.692-.107c.687-.043 1.086.286 1.17.815.06.387-.082.608-.456.781.398.073.672.303.74.735.107.672-.216 1.032-.97 1.079zm1.525-.65c.296-.018.422-.17.376-.456-.056-.354-.305-.517-.748-.49l-.868.055-.081-.512c.434-.027.754-.043 1.035-.06.313-.02.44-.188.391-.5a.4.4 0 00-.432-.349l-.98.062.365 2.31zM107.723 190.67l.538 3.405-.669.042-.538-3.406zM108.288 193.287c-.079-.497.266-.77 1.034-.818.18-.011.363-.007.548.014l-.03-.189c-.035-.223-.224-.325-.566-.303-.29.018-.605.078-.946.18l-.079-.5c.341-.102.657-.162.946-.18.788-.05 1.226.2 1.313.75l.264 1.676-.389.025-.272-.21c-.207.165-.45.255-.728.273-.648.04-1.013-.199-1.095-.718zm1.65-.376a2.979 2.979 0 00-.548-.013c-.322.02-.467.133-.434.34.035.222.187.325.457.308a.99.99 0 00.588-.234zM111.028 193.901l-.395-2.5.553-.036.106.364c.216-.26.486-.4.811-.421.628-.04.99.249 1.088.865l.25 1.577-.67.042-.25-1.577c-.043-.276-.21-.405-.501-.387a.929.929 0 00-.598.285l.276 1.746zM119.771 193.351l-.395-2.5.553-.035.106.363c.216-.26.486-.4.811-.421.628-.04.99.249 1.088.865l.25 1.577-.67.042-.25-1.577c-.043-.276-.21-.405-.501-.387a.929.929 0 00-.598.285l.276 1.746z" font-weight="700" font-size="16.25" font-family="Sansation" letter-spacing="0" word-spacing="0" text-anchor="middle"/><path d="M117.184 190.073c-1.004.064-1.697.882-1.547 1.83.15.947 1.084 1.663 2.089 1.6 1.005-.063 1.697-.882 1.547-1.83-.15-.947-1.084-1.663-2.089-1.6zm.092.578c.666-.042 1.285.433 1.385 1.061.099.629-.36 1.171-1.026 1.213-.667.042-1.286-.433-1.385-1.061-.1-.628.36-1.17 1.026-1.213z" color="#000" overflow="visible"/><g font-weight="700" font-size="16.25" font-family="Sansation" letter-spacing="0" word-spacing="0" text-anchor="middle"><path style="line-height:0%;-inkscape-font-specification:'Sansation Bold';text-align:center" d="M113.85 190.284l.539 3.406-.67.042-.538-3.406z"/><path d="M115.587 191.068l-.732 1.32 1.363 1.187-.738.046-1.363-1.187.733-1.32z" style="line-height:0%;-inkscape-font-specification:'Sansation Bold';text-align:center"/></g></g><path d="M127.67 189.045s-1.676-4.898-2.526-6.523c-.616-1.178-1.236-2.13-1.707-2.715-.471-.16-3.436-1.116-3.436-1.116l4.219.758c2.044 2.677 3.25 6.898 3.45 9.596z" fill="#95a9af"/><path d="M101.144 202.784l1.73.5 1.892 4.575s6.12 2.63 10.996 2.583c3.01-.029 6.983-1.555 6.983-1.555s-2.157 1.716-6.705 2.055c-5.43.405-12.496-2.388-12.496-2.388z" fill="#5d757b"/><g paint-order="markers stroke fill"><path d="M79.915 185.745s-5.521 12.001-4.811 19.651 14.414 8.978 18.401 9.698c2.72-8.058 3.98-14.688 3.98-14.688s-9.368-.688-10.305-2.748c-.74-1.627 2.001-6.536 2.001-6.536z" fill="#eaeeef"/><path d="M79.915 185.745s-.763 1.66-1.684 4.133c1.882.35 4.905 1.086 6.879 2.477-.597 4.293-.952 7.113 2.439 8.642a86.334 86.334 0 006.623 2.636l1.586-3.397c-2.746-.307-7.894-1.075-8.578-2.578-.74-1.627 2.001-6.536 2.001-6.536z" fill="#cbd5d7"/></g><g paint-order="markers stroke fill"><path d="M116.095 212.317s3.984-1.56 4.945-2.368c.961-.807 3.412-1.422 3.412-1.422s.556-5.097-2.948-4.977c-3.503.12-8.315 2.138-8.315 2.138z" fill="#5d757b" stroke="#495b5f" stroke-width="2.9997538400000003" stroke-linecap="round" stroke-linejoin="round"/><path d="M111.5 187.178s2.17-3.193 5.606-.819l6.527 29.41-1.433 5.659-4.066-4.555z" fill="#006680" stroke="#00546a" stroke-width="1.7777977600000001" stroke-linecap="round" stroke-linejoin="round"/><path style="font-variation-settings:normal" d="M113.232 186.715s-.95.442-.924 1.032c1.01 4.886 1.335 6.52 1.335 6.52s1.036-.582 1.762.182c-1.345-4.324-2.173-7.734-2.173-7.734zM117.465 206.182s1.762.673 2.542-.365c.689 2.935 2.715 9.653 2.715 9.653s-3.393-.06-3.975 1.141c.24-1.633-.545-4.184-.545-4.184s2.216-2.522-.737-6.245zM116.621 195.018l-1.48-8.575 1.234.264 1.907 9.08z" fill="#007c9b"/><path style="font-variation-settings:normal" d="M120.25 220.107c.027-.512 1.998-1.523 3.01-1.029 0 0-.096 2.693-.846 2.848-.788.163-2.164-1.819-2.164-1.819z" fill="#006680" stroke="#00546a" stroke-width="1.7777977600000001" stroke-linejoin="round"/><path style="font-variation-settings:normal" d="M103.73 216.114c-3.053.703-7.155.578-12.6-1.52-3.626-8.58 2.522-14.728 2.522-14.728s9.752-.396 13.078-.959l7.737-3.116 3.797 1.524c1.13 1.21.9 2.926 2.998 4.499-.385 1.383-1.219 2.466-2.985 2.926-1.378-.127-2.655-.756-2.667-1.986l-1.696-1.006-1.728 1.242s4.604 3.82 5.232 5.542c.914 2.505-.66 2.948-2.091 3.68.474 1.185.446 3.042-2.665 4.049.313 2.488-1.943 3.274-2.822 3.436-1.786.33-3.887-2.037-6.11-3.583z" fill="#688086"/><path d="M119.077 197.203c-.675.59-1.637 1.401-1.952 2.157-.62 1.48-1.78-.479-3.117-.71-1.336-.23-1.292.69-2.198 1.736-.907 1.046-2.092 1.286-1.233 2.825.835 2.486.297 3.527-1.577 3.825 1.28 2.858.921 3.714-1.941 4.824.703 1.787.365 2.601-.92 3.277 1.366 1.115 2.985 2.84 4.74 4.223.95-.44 2.003-1.346 1.783-3.099 3.11-1.007 3.139-2.864 2.665-4.05 1.432-.73 3.006-1.174 2.091-3.679-.628-1.721-5.149-5.814-5.149-5.814l1.426-1.152s.932.198 1.658.679c-.127 2.337 1.153 1.862 2.923 2.495 1.767-.46 2.6-1.543 2.986-2.926-1.93-1.445-1.406-3.37-2.185-4.61zm-10.777.079c-.318.333-.642.676-.871.905-1.23 1.231-2.28 1.894-4.326 1.847-2.047-.048-9.451-.168-9.451-.168s-.527.536-1.177 1.489c2.095.073 6.958.244 8.95.348 2.454.13 4.652-1.052 5.415-1.834.238-.243.806-1.297 1.46-2.587z" fill="#5d757b"/><path d="M115.82 212.95c-.014-.014.538-.667.523-.682-.949-.933-4.393-3.126-5.342-4.06.949.934 3.197 4.343 4.146 5.276.015.015.659-.548.674-.533zM113.302 217.16c-.015-.013.49-.702.475-.715-.953-.808-4.364-2.584-5.317-3.392.953.808 3.26 3.885 4.214 4.693.015.013.613-.599.628-.586z" fill="#495b5f"/><path style="font-variation-settings:normal" d="M92.25 207.983l10.518 1.608s.757-3.37 3.161-5.029c-1.706 2.865-1.96 5.428-2.074 6.823-3.932-.467-13.68-1.442-13.68-1.442l.07-2.36zM113.733 197.566s-.85 1.019-.15 2.364c.401-1.672.93-2.527.93-2.527s-.187-.24-.78.163z" fill="#81989e"/><path d="M103.73 216.114c-3.053.703-7.155.578-12.6-1.52-3.626-8.58 2.522-14.728 2.522-14.728s9.752-.396 13.078-.959l7.737-3.116 3.797 1.524c1.13 1.21.9 2.926 2.998 4.499-.385 1.383-1.219 2.466-2.985 2.926-1.378-.127-2.655-.756-2.667-1.986l-1.696-1.006-1.728 1.242s4.604 3.82 5.232 5.542c.914 2.505-.66 2.948-2.091 3.68.474 1.185.446 3.042-2.665 4.049.313 2.488-1.943 3.274-2.822 3.436-1.786.33-3.887-2.037-6.11-3.583z" style="font-variation-settings:normal" fill="#688086"/></g><path d="M74.11 182.84c.388.167 15.57 8.873 15.57 8.873s2.821-3.391 3.256-8.04c.254-2.714-1.832-6.72-1.832-6.72-5.833-.337-12.342 1.967-16.995 5.887z" fill="#688086" stroke="#495b5f" stroke-width="1.777" stroke-linejoin="round"/><path d="M78.805 184.485c2.515-2.859 6.928-5.571 11.728-6.667-5.294-.073-10.387 1.565-14.791 4.9z" fill="#99acb0"/><path d="M131.45 160.71l8.804 18.306-24.217-7.915z" fill="#738d93" stroke="#506367" stroke-width="1.777"/><path d="M73.325 161.272l-7.76 18.774 23.734-9.267z" fill="#738d93" stroke="#506367" stroke-width="1.777" stroke-linejoin="round"/><path d="M73.418 162.92l3.615 2.15-9.38 13.136-.67.265z" fill="#8a9fa4"/><path d="M138.493 177.518l-13.201-4.292.3-2.106z" fill="#5d757b"/><path d="M97.814 98.07l13.325-.376c17.415-.49 30.415 13.18 31.383 30.576 0 0-2.597 5.936-2.386 9.562.562 9.665 1.557 15.492 1.557 15.492 2.512 14.716-13.152 22.765-29.27 23.22l-12.386.349c-17.416.49-31.831-13.134-32.322-30.55l-.45-15.952c-.49-17.415 13.134-31.83 30.55-32.321z" color="#000" overflow="visible" fill="#738d93" stroke="#495b5f" stroke-width="1.593" stroke-linecap="round" stroke-linejoin="round"/><path d="M111.997 97.695c16.73.371 31.076 13.731 30.031 30.576-.446 7.193-2.113 12.47-.265 26.336-.04 6.68-6.155 15.67-15.757 16.916-.898-1.57-2.417-3.554-4.419-3.554h-12.524c-2.215 0-3.938 2.043-4.927 3.61-14.271-2.652-25.205-14.93-25.631-30.05l-.451-15.947c-.31-11.005 5.03-20.794 13.389-26.646 2.06-.486 4.21-.822 6.412-.884l12.506-.357a32.685 32.685 0 011.636 0z" color="#000" overflow="visible" fill="#fae1d2" stroke="#495b5f" stroke-width="1.593" stroke-linecap="round" stroke-linejoin="round"/><path d="M80.908 130.69c1.154 8.637 1.255 9.108 1.255 18.941 0 4.57 9.818 18.016 21.61 21.06-12.561-2.392-23.816-14.087-24.196-27.566l-.265-9.765z" fill="#e8c8b5"/><path d="M97.8 97.211c-17.416.491-31.032 15.768-30.541 33.183l.307 10.882S83.35 133.13 91.11 128.6c5.41-3.158 16.93-7.842 16.93-7.842l10.219-6.8 10.179 6.633 14.085 7.78-.09-3.166c-.441-15.679-13.915-28.86-31.33-28.37z" fill="#738d93" stroke="#495b5f" stroke-width="1.536" stroke-linejoin="round"/><path d="M100.735 97.966c-7.957.712-16.158 3.32-23.781 11.374l-1.998.362c5.311-6.815 13.377-11.375 22.55-11.633zM120.045 98.563s9.51 4.716 14.408 11.585c5.213 7.31 4.723 15.967 4.723 15.967l1.974 2.404.696-.02-.078-2.744c-.369-13.094-9.198-24.054-21.723-27.192z" fill="#99acb0"/><path d="M109.366 123.731l9.288 7.356 8.534-6.396-8.34-8.357z" fill="#657d83" stroke="#495b5f" stroke-width="1.062" stroke-linejoin="round"/><path d="M111.51 121.284l7.156 5.667 6.576-4.928-6.427-6.44z" fill="#eaeeef" stroke="#495b5f" stroke-width="1.062" stroke-linejoin="round"/><path d="M85.358 130.702c-3.725 1.693-7.124 2.857-7.124 2.857l.455 5.985.382.587c-.19.081 2.899-.355 9.272-3.217z" fill="#657d83" stroke="#495b5f" stroke-width="1.062" stroke-linejoin="round"/><path d="M92.194 110.981c-4.318-1.274-13.397-1.933-19.361 2.267 0 0 .666-2.269.72-2.488.115-.47 8.11-3.22 8.644-3.192 5.938.318 7.884 1.345 9.997 3.413z" fill="#657d83"/><path d="M72.347 112.277s3.627-4.243 9.805-4.816c6.178-.574 10.328 2.605 10.328 2.605" fill="none" stroke="#495b5f" stroke-width="2.095" stroke-linecap="round" stroke-linejoin="round"/><path d="M118.117 112.425S98.744 122.84 90.56 127.811c-.803.488-1.693.942-2.584 1.4 0 0-5.073-5.24-8.876-6.29-5.11-1.41-11.577 2.75-11.577 2.75l-.124 6.064s4.893-2.981 9.95-2.065c4.132.749 9.472 7.893 9.472 7.893l1.115-.497.034.033a90.056 90.056 0 004.456-2.118c8.295-4.261 25.796-15.402 25.796-15.402 9.351 5.712 24.54 15.062 24.54 15.062l.711-6.229-.062-1.027-25.295-14.96zM89.585 98.182l3.08-.67c4.924-.593 12.226 2.959 14.29 10.17l11.312 3.196 6.241-3.584s-.32-2.206-.92-4.281c-.246-.85-1.092-1.37-1.603-1.823-6.011-5.325-13.104-5.815-13.104-5.815s-9.14.204-15.017-.125c-3.413-.19-4.279 2.932-4.279 2.932z" fill="#657d83" stroke="#495b5f" stroke-width="1.062" stroke-linejoin="round"/><path d="M80.745 154.46s-.953 3.404-3.04 4.682c-1.488.912-3.806.813-3.806.813 6.196 12.7 23.67 15.712 33.49 15.894l-7.65.222a30.215 30.215 0 01-29.344-19.966z" fill="#657d83"/><path d="M64.695 139.67c.084 2.98-.106 4.573 1.583 11.196 1.333 5.226 3.63 7.598 6.551 7.516l2.815-.08c2.227-.063 5.117-3.706 5.054-5.933l-.402-14.266c-.07-2.469-1.53-5.594-5.543-5.48l-4.521.127c-4.016.113-5.6 4.696-5.537 6.92z" fill="#738d93" stroke="#495b5f" stroke-width="1.062"/><path d="M71.811 137.644s2.762 1.362 2.798 2.644c.12 4.209.197 6.973.328 11.636.02.664-1.368 1.447-1.368 1.447" fill="none" stroke="#495b5f" stroke-width="1.062" stroke-linecap="round" stroke-linejoin="round"/><path d="M94.154 95.098c4.967.278 16.142 2.105 16.142 2.105s.346.024.89.111l6.62 6.51.435 6.501-10.976-3.105c-1.744-6.094-7.56-10.302-14.128-10.215l-2.635.44s.767-2.508 3.652-2.347z" fill="#576d72"/><path d="M90.346 96.905c.817-.188 2.298-.74 3.443-.808 5.166-.312 11.678 1.7 15.063 8.796l9.115 1.542 5.703-3.485s-1.106-2.8-3.104-4.506C115.48 94.099 109.65 93.6 109.65 93.6s-10.684.614-15.741.863c-2.844.14-3.564 2.442-3.564 2.442z" fill="#c2ced1" stroke="#495b5f" stroke-width=".885" stroke-linejoin="round"/><path d="M94.225 94.89c2.088-.101 2.604-.137 4.9-.23 3.894-.158 6.538 2.64 9.015 5.65.783.951 1.796 3.363 1.796 3.363l-.79.828s-2.05-4.463-6.453-6.825c-2.475-1.329-4.076-2.031-8.084-2.031-1.586 0-3.344.541-3.344.541.348-.468.727-1.188 2.96-1.296z" fill="#9aaeb3"/><path d="M108.365 94.098s5.409 1.227 9.002 3.45c1.867 1.156 5.347 4.456 5.347 4.456l-4.838 3.097.006.878 5.238-3.221-.676-1.331s-.417-1.632-4.542-4.37c-3.772-2.504-8.274-3.019-8.274-3.019z" fill="#dbe2e3"/><path d="M74.915 133.164c3.503-.1 4.781 2.637 4.842 4.793.136 4.814.28 8.734.436 14.266.058 2.049-2.382 5.114-4.26 5.516 0 0 2.757-2.382 2.757-5.245 0-5.082-.262-13.464-.262-13.464 0-3.848-2.875-5.002-5.976-5.833.45-.013 1.872-.017 2.463-.033z" fill="#8a9fa4"/><path d="M131.052 156.287c-4.418.797-25.34.576-27.058-1.448 0 0 .725 8.094 7.44 9.575 7.313 1.612 15.055.028 15.011-.109-1.08-4.03 2.042-6.82 2.042-6.82s1.944-1.032 2.565-1.198z" fill="#e8c8b5"/><path d="M126.475 157.518c-6.792.338-14.859.277-21.25-1.15 0 0 1.547 6.105 6.31 7.265 6.291 1.53 13.964.32 13.844.036l-.373-3.3z" fill="#fff"/><path d="M125.51 159.93l-5.945.58 6.216.473zM106.564 159.981l5.944.58-6.216.473z" fill="#e8c8b5"/><path d="M139.363 125.555l3.534 2.136.045.703-.614 5.358s-2.248-1.397-3.093-1.916z" fill="#789197"/><circle transform="scale(-1 1) rotate(-3.363)" cx="-111.719" cy="137.595" r="1.032" color="#000" overflow="visible" fill="#fff"/><path d="M110.746 139.345s.87 2.684.212 5.817c-.88 4.186-2.786 4.88-2.786 4.88l-8.33-.042s-2.042-1.386-2.698-5.067c-.733-4.106.085-6.051.085-6.051l8.422-1.625z" fill="#f9f9f9"/><path d="M112.451 140.429s-4.694-2.095-7.404-2.414c-4.81-.567-9.283 2.393-9.283 2.393s1.654-4.486 9.61-3.649c4.08.43 7.077 3.67 7.077 3.67zM97.042 149.241s3.278.355 6.257.607c3.49.296 6.72-.826 6.72-.826s-2.191 1.886-6.736 1.618c-2.112-.124-4.445-.523-6.241-1.399z" fill="#39474a"/><path d="M109.143 138.682s.818 3.73-.097 6.798c-1.264 4.237-3.557 4.88-3.557 4.88l-6.096-.308s-2.042-1.386-2.698-5.066c-.733-4.107.353-5.854.353-5.854l7.462-1.61z" fill="#39474a"/><circle transform="scale(-1 1) rotate(-3.363)" cx="-109.827" cy="135.039" r="1.888" color="#000" overflow="visible" fill="#fff"/><path d="M108.36 143.192s.289 6.353-5.563 6.079c-3.319-.155-4.3-3.28-4.3-3.28s2.399 2.434 5.083 1.97c3.587-.621 4.78-4.77 4.78-4.77z" fill="#506e76"/><circle transform="rotate(-3.363)" cx="122.749" cy="150.887" r=".844" color="#000" overflow="visible" fill="#fff"/><path d="M125.35 139.603s-.691 2.604.057 5.113c1.034 3.467 2.91 3.993 2.91 3.993l5.363-.478s1.67-1.134 2.208-4.145c.599-3.36-.049-5.494-.049-5.494l-6.345-.612z" fill="#f9f9f9"/><path d="M124.522 140.36s3.838-1.741 6.057-1.975c3.227-.34 7.44 1.712 7.44 1.712s-1.198-3.424-7.708-2.74c-3.337.352-5.79 3.003-5.79 3.003zM136.636 148s-2.973.26-5.12.281c-2.864.028-5.3-.277-5.3-.277s.877.941 5.314.925c3.337-.012 5.106-.93 5.106-.93z" fill="#39474a"/><path d="M125.222 139.893s-.631 2.272.117 4.781c1.034 3.466 2.91 3.993 2.91 3.993l4.38-.192s1.753-1.13 2.29-4.14c.599-3.36-.03-6.08-.03-6.08l-5.84-.092z" fill="#39474a"/><circle transform="rotate(-3.363)" cx="122.825" cy="148.676" r="1.545" color="#000" overflow="visible" fill="#fff"/><path d="M125.9 142.802s-.236 5.197 4.552 4.973c2.714-.127 3.517-2.683 3.517-2.683s-1.962 1.991-4.158 1.611c-2.935-.507-3.91-3.901-3.91-3.901z" fill="#506e76"/><path d="M121.02 144.942s.099 1.639.979 3.537c.602 1.301 1.674 2.217 1.674 2.9 0 1.494-3.027 1.745-3.027 1.745s1.907-.506 1.9-1.7c0-.396-.927-1.366-1.288-2.646-.561-1.988-.237-3.836-.237-3.836z" fill="#e8c8b5"/><path d="M126.112 134.953c-.575.366-1.115 1.337-1.098 2.318 4.754-2.659 10.207-2.375 13.699-1.112-2.773-3.64-8.953-3.527-12.601-1.206zM110.31 134.64c.613.39 1.188 1.426 1.17 2.471-5.068-2.834-11.944-3.063-15.667-1.717 2.956-3.88 10.608-3.228 14.497-.754z" fill="#39474a"/><path d="M124.324 171.813s-1.212-2.48-2.946-2.507c-4.481-.068-12.65 0-12.65 0s7.87.645 11.599.645c1.77 0 3.997 1.862 3.997 1.862z" fill="#99acb0"/><path d="M124.537 165.87s-5.046.1-7.447.018c-2.693-.093-8.081-.616-8.081-.616s5.312 1.189 7.972 1.268c2.427.072 7.556-.67 7.556-.67z" fill="#e8c8b5"/><path style="font-variation-settings:normal" d="M191.496 88.312c-19.2 0-35.728 5.228-37.287 30.216-.885 14.192.963 22.375 12.94 27.58-2.237 3.486-6.333 8.344-12.168 9.203 10.39 2.665 17.14-1.475 20.422-4.433 4.484 1.825 17.618 4.467 26.731 3.804 25.721-1.873 29.34-22.19 29.34-40.035 0-17.845-20.777-26.335-39.978-26.335z" fill="#eaeeef" stroke="#6b797d" stroke-width="1.852" stroke-linecap="round" stroke-linejoin="round"/></g><g aria-label="Sip! Laporan Anda sudah Boni Catat!" style="-inkscape-font-specification:Mitr" font-weight="400" font-size=".475" font-family="Mitr" fill="#6b797d" stroke-width=".013"><path d="M38.595 14.154q-.185 0-.366-.038-.178-.044-.286-.115-.033-.022-.033-.045 0-.016.011-.033l.087-.136q.017-.022.028-.022.01 0 .033.011.097.058.225.094.128.034.259.034.178 0 .267-.058.092-.06.092-.192 0-.078-.033-.125-.033-.05-.1-.081-.066-.033-.212-.092l-.06-.022q-.17-.068-.283-.13-.11-.064-.184-.166-.073-.102-.073-.248 0-.238.181-.367.183-.13.479-.13.18 0 .311.033.134.033.23.104.034.022.034.045 0 .016-.011.027l-.084.136q-.017.022-.028.022-.01 0-.033-.016-.167-.108-.416-.108-.165 0-.248.06-.084.06-.084.192 0 .08.033.13.039.05.105.082.067.033.22.091l.065.028q.191.076.298.14.108.064.165.16.06.095.06.244 0 .226-.17.356-.168.129-.48.129zM39.632 12.641q-.063 0-.097-.038-.033-.039-.033-.09v-.055q0-.055.033-.089.033-.038.097-.038h.113q.062 0 .097.038.038.04.038.09v.054q0 .055-.038.09-.034.038-.097.038zm-.01 1.474q-.056 0-.077-.022-.022-.022-.022-.07v-1.066q0-.05.022-.073.022-.022.076-.022h.136q.055 0 .076.022.022.022.022.073v1.065q0 .05-.022.071-.022.022-.076.022zM40.284 14.644q-.055 0-.076-.022-.022-.022-.022-.07v-1.566q.1-.07.264-.118.168-.05.335-.05.76 0 .76.67 0 .309-.168.488-.165.178-.456.178-.264 0-.405-.152v.547q0 .05-.022.07-.022.023-.076.023zm.56-.728q.186 0 .277-.112.092-.113.092-.325 0-.228-.108-.322-.107-.097-.33-.097-.164 0-.259.05v.516q0 .133.095.212.094.079.233.079zM41.87 13.62q-.044 0-.065-.022-.017-.022-.017-.073l-.016-1.094q0-.05.022-.074.022-.022.076-.022h.144q.055 0 .073.022.022.022.022.074l-.017 1.094q0 .05-.022.073-.016.022-.07.022zm.033.495q-.154 0-.154-.107v-.055q0-.11.154-.11h.068q.155 0 .155.11v.055q0 .107-.155.107zM43.501 14.115q-.055 0-.076-.022-.022-.022-.022-.07v-1.59q0-.05.022-.073.022-.022.076-.022h.14q.054 0 .075.022.022.022.022.073v1.43h.801q.055 0 .074.022.022.022.022.07v.07q0 .05-.022.069-.022.022-.074.022zM45.23 14.154q-.258 0-.41-.154-.15-.157-.15-.44 0-.22.096-.387.097-.17.275-.262.18-.091.419-.091.332 0 .563.157v1.068q0 .038-.017.055-.016.016-.058.016h-.143q-.028 0-.044-.01-.012-.012-.017-.04l-.022-.101q-.081.1-.202.146-.118.044-.287.044zm.125-.238q.139 0 .243-.08.108-.082.108-.216v-.51q-.055-.028-.113-.039-.055-.01-.136-.01-.206 0-.332.13-.126.131-.126.362 0 .188.087.277.089.09.27.09zM46.428 14.644q-.055 0-.076-.022-.022-.022-.022-.07v-1.566q.1-.07.264-.118.168-.05.336-.05.759 0 .759.67 0 .309-.168.488-.165.178-.456.178-.264 0-.405-.152v.547q0 .05-.022.07-.022.023-.076.023zm.56-.728q.186 0 .277-.112.092-.113.092-.325 0-.228-.107-.322-.108-.097-.33-.097-.165 0-.26.05v.516q0 .133.095.212.094.079.233.079zM48.538 14.154q-.34 0-.526-.178-.184-.18-.184-.49 0-.308.184-.486.185-.181.526-.181.34 0 .526.18.186.179.186.488t-.186.49q-.185.177-.526.177zm0-.245q.186 0 .283-.108.097-.107.097-.314 0-.204-.097-.309-.097-.107-.283-.107-.183 0-.283.107-.097.105-.097.309 0 .204.097.314.1.108.283.108zM49.606 14.115q-.055 0-.076-.022-.022-.022-.022-.07V12.93q0-.039.011-.055.011-.017.055-.017h.15q.027 0 .044.011.01.011.016.039l.006.094q.154-.186.405-.186.115 0 .175.039.017.01.017.022.005.01 0 .027l-.05.158q-.005.027-.027.027l-.022-.005q-.063-.028-.144-.028-.133 0-.22.076-.086.074-.086.202v.686q0 .05-.022.07-.023.022-.077.022zM51.104 14.154q-.257 0-.409-.154-.151-.157-.151-.44 0-.22.097-.387.097-.17.275-.262.18-.091.418-.091.333 0 .563.157v1.068q0 .038-.016.055-.017.016-.058.016h-.143q-.028 0-.045-.01-.01-.012-.016-.04l-.022-.101q-.081.1-.202.146-.118.044-.288.044zm.125-.238q.139 0 .244-.08.107-.082.107-.216v-.51q-.055-.028-.112-.039-.055-.01-.136-.01-.207 0-.333.13-.125.131-.125.362 0 .188.086.277.09.09.27.09zM52.305 14.115q-.05 0-.076-.022-.022-.022-.022-.07V12.93q0-.039.011-.055.011-.017.055-.017h.15q.057 0 .06.055l.005.105q.178-.196.51-.196.212 0 .34.115.131.112.131.34v.747q0 .05-.022.07-.022.022-.073.022h-.139q-.055 0-.076-.022-.022-.022-.022-.07v-.726q0-.128-.06-.18-.058-.055-.189-.055-.138 0-.243.076-.102.073-.102.19v.695q0 .05-.022.07-.022.022-.076.022zM54.779 14.115q-.044 0-.044-.039 0-.016.005-.033l.691-1.638q.017-.039.034-.056.016-.016.055-.016h.143q.04 0 .056.016.016.012.033.056l.69 1.638q.006.017.006.033 0 .039-.044.039h-.227q-.033 0-.05-.005-.011-.012-.028-.04l-.149-.366h-.722l-.147.367q-.011.027-.028.039-.01.005-.05.005zm1.089-.657l-.277-.686-.278.686zM56.805 14.115q-.055 0-.076-.022-.022-.022-.022-.07V12.93q0-.039.011-.055.011-.017.055-.017h.15q.057 0 .06.055l.005.105q.178-.196.51-.196.212 0 .34.115.132.112.132.34v.747q0 .05-.022.07-.022.022-.073.022h-.14q-.054 0-.075-.022-.022-.022-.022-.07v-.726q0-.128-.06-.18-.058-.055-.189-.055-.139 0-.244.076-.101.073-.101.19v.695q0 .05-.023.07-.022.022-.076.022zM58.957 14.154q-.743 0-.743-.67 0-.196.076-.345.076-.152.217-.236.144-.084.338-.084.275 0 .397.123v-.51q0-.05.023-.073.022-.022.076-.022h.13q.055 0 .076.022.022.022.022.073v1.552q-.1.074-.267.123-.168.05-.348.05zm.006-.238q.175 0 .277-.063v-.534q0-.128-.089-.193-.09-.066-.23-.066-.192 0-.286.116-.094.115-.094.316 0 .226.105.325.104.1.317.1zM60.35 14.154q-.257 0-.409-.154-.151-.157-.151-.44 0-.22.097-.387.097-.17.275-.262.18-.091.419-.091.332 0 .562.157v1.068q0 .038-.016.055-.017.016-.057.016h-.144q-.028 0-.044-.01-.011-.012-.017-.04l-.022-.101q-.08.1-.202.146-.118.044-.288.044zm.125-.238q.14 0 .244-.08.107-.082.107-.216v-.51q-.055-.028-.112-.039-.055-.01-.136-.01-.207 0-.332.13-.126.131-.126.362 0 .188.086.277.09.09.27.09zM38.504 17.427q-.157 0-.307-.033-.149-.034-.256-.097-.033-.017-.033-.039 0-.017.011-.028l.073-.128q.011-.022.028-.022.011 0 .033.011.079.05.193.079.116.033.213.033.149 0 .212-.028.065-.033.065-.11 0-.044-.027-.07-.022-.028-.073-.05-.05-.022-.165-.058l-.087-.027q-.15-.05-.238-.097-.09-.05-.139-.118-.05-.074-.05-.184 0-.178.15-.27.152-.094.393-.094.293 0 .505.126.033.017.033.039 0 .01-.01.033l-.071.112q-.017.022-.028.022-.01 0-.033-.01-.068-.045-.165-.066-.094-.028-.19-.028-.132 0-.195.028-.06.027-.06.104 0 .068.07.108.074.038.252.094l.086.027q.205.066.286.155.084.09.084.222 0 .163-.144.265-.141.102-.419.102zM39.787 17.427q-.215 0-.346-.118-.131-.121-.131-.356v-.725q0-.05.022-.074.022-.022.076-.022h.139q.055 0 .076.022.022.022.022.074v.717q0 .125.066.186.065.057.193.057.136 0 .228-.076.091-.076.091-.196v-.688q0-.05.022-.074.022-.022.076-.022h.136q.055 0 .076.022.022.022.022.074v1.089q0 .044-.01.057-.012.011-.056.011h-.146q-.028 0-.044-.011-.011-.011-.017-.039l-.011-.11q-.178.2-.49.2zM41.559 17.427q-.744 0-.744-.67 0-.197.076-.346.076-.152.218-.235.143-.084.337-.084.275 0 .398.123v-.51q0-.05.022-.074.022-.022.076-.022h.131q.055 0 .076.022.022.022.022.073v1.553q-.1.073-.267.123-.168.05-.348.05zm.005-.238q.176 0 .278-.063v-.534q0-.129-.09-.194-.088-.065-.23-.065-.19 0-.285.115-.094.115-.094.317 0 .225.104.324.105.1.317.1zM42.952 17.427q-.257 0-.409-.155-.152-.157-.152-.44 0-.22.097-.387.097-.17.275-.262.18-.091.419-.091.332 0 .563.157v1.068q0 .039-.017.055-.016.017-.057.017h-.144q-.028 0-.044-.011-.011-.011-.017-.039l-.022-.102q-.08.1-.201.147-.118.044-.289.044zm.125-.238q.14 0 .244-.081.107-.081.107-.215v-.51q-.055-.028-.112-.04-.055-.01-.136-.01-.207 0-.333.13-.125.131-.125.362 0 .188.086.278.089.089.27.089zM44.153 17.387q-.055 0-.076-.022-.022-.022-.022-.07V15.68q0-.039.011-.056.011-.016.055-.016h.181q.044 0 .055.016.017.017.017.056v.586q.086-.087.201-.128.115-.045.273-.045.212 0 .34.116.13.112.13.34v.746q0 .05-.021.07-.022.022-.074.022h-.138q-.056 0-.077-.022-.022-.022-.022-.07v-.725q0-.129-.062-.181-.06-.055-.186-.055-.087 0-.168.033-.078.033-.128.094-.05.06-.05.139v.694q0 .05-.022.07-.022.022-.076.022zM46.732 17.387q-.055 0-.076-.022-.022-.022-.022-.07v-1.59q0-.049.022-.073.022-.022.076-.022h.756q.273 0 .411.132.142.13.142.353 0 .125-.063.225t-.176.147q.29.091.29.408 0 .147-.067.265-.066.115-.199.183-.133.067-.33.067zm.71-1.036q.128 0 .195-.066.07-.065.07-.183 0-.129-.065-.184-.063-.057-.204-.057h-.469v.49zm.038.782q.144 0 .212-.073.068-.076.068-.194 0-.136-.084-.204-.081-.07-.228-.07h-.479v.541zM49.007 17.427q-.341 0-.527-.178-.183-.181-.183-.49 0-.308.183-.487.186-.18.527-.18.34 0 .526.18.186.178.186.487t-.186.49q-.186.178-.526.178zm0-.247q.185 0 .282-.107.097-.108.097-.314 0-.205-.097-.309-.097-.107-.282-.107-.184 0-.283.107-.097.105-.097.309 0 .204.097.314.1.107.283.107zM50.075 17.387q-.055 0-.076-.022-.022-.022-.022-.07v-1.092q0-.038.01-.055.012-.017.056-.017h.15q.056 0 .06.056l.004.104q.178-.196.51-.196.213 0 .341.115.131.113.131.34v.746q0 .05-.022.07-.022.023-.073.023h-.139q-.055 0-.076-.022-.022-.022-.022-.07v-.726q0-.128-.06-.18-.058-.056-.188-.056-.14 0-.244.076-.102.074-.102.192v.693q0 .05-.022.07-.022.023-.076.023zM51.666 15.914q-.062 0-.097-.04-.033-.038-.033-.088v-.055q0-.055.033-.089.033-.038.097-.038h.113q.063 0 .097.038.038.039.038.09v.054q0 .055-.038.089-.033.039-.097.039zm-.01 1.473q-.056 0-.077-.022-.022-.022-.022-.07v-1.066q0-.05.022-.073.022-.022.076-.022h.136q.056 0 .077.022.022.022.022.073v1.066q0 .05-.022.07-.023.022-.077.022zM54.122 17.427q-.445 0-.689-.241-.243-.241-.243-.689 0-.447.238-.688.24-.241.686-.241.178 0 .33.039.151.038.256.104.022.017.022.033 0 .017-.011.039l-.074.126q-.016.022-.027.022t-.039-.011q-.165-.1-.421-.1-.296 0-.464.17-.167.17-.167.51 0 .346.173.516.173.168.466.168.272 0 .447-.102.028-.011.033-.011.017 0 .033.022l.082.136q.005.017.005.028 0 .016-.028.033-.201.141-.61.141zM55.405 17.427q-.257 0-.409-.155-.151-.157-.151-.44 0-.22.097-.387.097-.17.275-.262.18-.091.419-.091.332 0 .562.157v1.068q0 .039-.016.055-.017.017-.057.017h-.144q-.028 0-.044-.011-.011-.011-.017-.039l-.022-.102q-.081.1-.202.147-.118.044-.288.044zm.125-.238q.14 0 .244-.081.107-.081.107-.215v-.51q-.055-.028-.112-.04-.055-.01-.136-.01-.207 0-.333.13-.125.131-.125.362 0 .188.086.278.09.089.27.089zM57.02 17.427q-.223 0-.335-.123-.113-.123-.113-.34v-.587h-.149q-.055 0-.07-.016-.017-.017-.017-.068v-.07q0-.05.016-.068.017-.022.071-.022h.15v-.144q0-.055.016-.102.022-.05.063-.123.016-.033.027-.039.017-.01.05-.01h.086q.05 0 .066.021.022.022.022.066v.33h.309q.055 0 .067.022.017.017.017.068v.07q0 .05-.017.068-.016.017-.067.017h-.309v.576q0 .12.044.175.044.05.144.05.06 0 .102-.011.044-.017.091-.05.011-.011.028-.011.016 0 .033.022l.076.126q.011.01.011.027t-.028.039q-.162.104-.387.104zM58.054 17.427q-.256 0-.409-.155-.151-.157-.151-.44 0-.22.097-.387.097-.17.275-.262.18-.091.419-.091.332 0 .563.157v1.068q0 .039-.017.055-.017.017-.057.017h-.144q-.028 0-.044-.011-.011-.011-.017-.039l-.022-.102q-.08.1-.201.147-.118.044-.289.044zm.126-.238q.138 0 .243-.081.108-.081.108-.215v-.51q-.056-.028-.113-.04-.055-.01-.136-.01-.207 0-.332.13-.126.131-.126.362 0 .188.087.278.088.089.27.089zM59.67 17.427q-.224 0-.336-.123-.112-.123-.112-.34v-.587h-.15q-.055 0-.07-.016-.017-.017-.017-.068v-.07q0-.05.017-.068.016-.022.07-.022h.15v-.144q0-.055.016-.102.022-.05.063-.123.016-.033.028-.039.016-.01.055-.01h.086q.05 0 .066.021.022.022.022.066v.33h.308q.056 0 .068.022.017.017.017.068v.07q0 .05-.017.068-.016.017-.068.017h-.308v.576q0 .12.044.175.044.05.144.05.06 0 .102-.011.044-.017.091-.05.011-.011.028-.011.016 0 .033.022l.076.126q.01.01.01.027t-.027.039q-.162.104-.387.104zM60.355 16.893q-.044 0-.066-.022-.016-.023-.016-.074l-.017-1.094q0-.05.022-.073.022-.022.076-.022h.144q.055 0 .074.022.022.022.022.073l-.017 1.094q0 .05-.022.074-.017.022-.07.022zm.033.494q-.154 0-.154-.107v-.055q0-.11.154-.11h.068q.154 0 .154.11v.055q0 .107-.154.107z"/></g></svg>